PathFileType	4	(X/Y/Z)	C:\Users\dbl\Desktop\LZH\BX\Trimmed_bx_y_0_1801.trc
DataRate	CameraRate	NumFrames	NumMarkers	Units	OrigDataRate	OrigDataStartFrame	OrigNumFrames
50.00	50.00	      8	43	mm	50.00	554	      1475
Frame#	Time	Top.Head			R.Acromium			L.Acromium			Sternum			R.ASIS			L.ASIS			V.Sacral			R.Thigh.Upper			R.Thigh.Front			R.Thigh.Rear			R.Knee.Lat			R.Knee.Med			R.Shank.Upper			R.Shank.Front			R.Shank.Rear			R.Ankle.Lat			R.Midfoot.Lat			R.Toe.Lat			R.Toe.Tip			R.Toe.Med			R.Ankle.Med			R.Midfoot.Sup			R.Heel			L.Thigh.Upper			L.Thigh.Front			L.Thigh.Rear			L.Knee.Lat			L.Knee.Med			L.Shank.Upper			L.Shank.Front			L.Shank.Rear			L.Ankle.Lat			L.Midfoot.Lat			L.Toe.Lat			L.Toe.Tip			L.Toe.Med			L.Ankle.Med			L.Midfoot.Sup			L.Heel			origin1 front left			origin2 front right			origin 3 back right			origin 4 back leftt			
		X1	Y1	Z1	X2	Y2	Z2	X3	Y3	Z3	X4	Y4	Z4	X5	Y5	Z5	X6	Y6	Z6	X7	Y7	Z7	X8	Y8	Z8	X9	Y9	Z9	X10	Y10	Z10	X11	Y11	Z11	X12	Y12	Z12	X13	Y13	Z13	X14	Y14	Z14	X15	Y15	Z15	X16	Y16	Z16	X17	Y17	Z17	X18	Y18	Z18	X19	Y19	Z19	X20	Y20	Z20	X21	Y21	Z21	X22	Y22	Z22	X23	Y23	Z23	X24	Y24	Z24	X25	Y25	Z25	X26	Y26	Z26	X27	Y27	Z27	X28	Y28	Z28	X29	Y29	Z29	X30	Y30	Z30	X31	Y31	Z31	X32	Y32	Z32	X33	Y33	Z33	X34	Y34	Z34	X35	Y35	Z35	X36	Y36	Z36	X37	Y37	Z37	X38	Y38	Z38	X39	Y39	Z39	X40	Y40	Z40	X41	Y41	Z41	X42	Y42	Z42	X43	Y43	Z43	

554	11.060	-282.05341	264.72775	1390.21265	-380.62613	64.06957	1112.92627	-392.96686	457.54974	1118.79395	-404.47913	247.82430	1037.19946	-664.25549	151.15738	928.50897	-650.04901	330.83023	978.03680	-862.80750	256.40985	857.46027	-653.27203	100.52634	732.09717	-595.87054	166.87976	741.29974	-561.50317	84.91765	653.92773	-469.28644	109.99013	527.95337	-430.79138	237.17628	512.07910	-496.83301	110.15212	484.50250	-404.35114	163.31796	490.88477	-563.41553	118.75950	446.23792	-663.36340	160.21239	219.19864	-608.53412	91.86788	177.45993	-566.96826	64.71259	170.80876	-493.68015	89.68229	160.71924	-528.51526	147.60893	157.97481	-610.01093	233.02554	199.72278	-583.92578	197.21477	158.42017	-708.38153	228.11060	173.37968	-634.52472	451.68167	735.55408	-579.75330	390.45819	741.95270	-566.18073	464.33200	629.37280	-481.90179	439.57803	539.12585	-422.27509	336.32806	515.40424	-470.38422	439.56061	495.93918	-420.31573	392.80154	466.84933	-536.77637	433.89291	466.31219	-662.15454	404.25320	212.09836	-584.18317	461.46686	167.87621	-547.65814	474.49030	161.77904	-486.86755	431.54999	168.16574	-521.14581	385.20160	174.47223	-625.81860	315.99127	195.71733	-588.03101	341.01599	159.69177	-726.51434	332.71524	167.56302	-443.97449	448.70010	148.15182	-450.20483	76.22800	143.32330	-806.08429	82.59886	142.74123	-798.69531	457.90884	145.52928	
555	11.080	-282.84790	264.15536	1391.92993	-380.99634	63.57019	1114.38147	-393.33862	457.02319	1120.24683	-405.18427	247.87483	1039.92163	-663.37628	150.96275	930.07751	-648.96185	331.05496	979.10046	-862.75641	255.87560	858.39368	-653.27399	100.01582	732.78247	-595.82104	166.28636	741.84204	-562.09174	84.89722	654.85962	-469.65851	109.61191	528.17816	-432.09302	236.69783	512.68506	-497.20581	109.86397	484.51410	-404.80499	163.00784	491.02777	-563.63818	118.39956	446.39160	-663.42114	160.11755	219.21454	-608.56989	91.81538	177.36696	-567.04437	64.61740	170.61897	-493.67792	89.66484	160.71693	-528.35260	147.70856	157.97942	-610.12506	232.90677	199.80754	-583.97437	197.25545	158.36374	-708.47583	228.01559	173.37041	-634.59204	451.24234	736.27307	-579.68207	390.15466	742.64935	-566.46265	463.99469	629.90576	-482.29419	439.34592	539.51538	-422.62805	336.15863	515.58081	-470.71759	439.35294	496.32623	-420.67676	392.63074	467.12610	-537.06299	433.65137	466.54767	-662.20282	404.25928	212.06564	-584.12854	461.37653	167.89146	-547.67798	474.53769	161.77020	-486.88263	431.55612	168.16623	-521.16846	385.20163	174.48489	-625.82013	315.99811	195.68037	-588.02899	341.01926	159.72900	-726.50458	332.79745	167.52180	-443.97046	448.70865	148.14035	-450.21454	76.22449	143.32126	-806.10553	82.57766	142.74368	-798.68152	457.86435	145.59959	
556	11.100	-283.73172	263.57056	1393.97937	-381.41431	63.07062	1116.15344	-393.73010	456.52640	1122.01245	-405.90552	247.91209	1042.78174	-662.46808	150.75877	931.68170	-647.85028	331.28638	980.18439	-862.67981	255.34384	859.51849	-653.24390	99.52423	733.60291	-595.71460	165.66951	742.50275	-562.70203	84.86748	655.82880	-470.05737	109.20432	528.41840	-433.42700	236.18904	513.29358	-497.65121	109.52154	484.55313	-405.40045	162.58420	491.20807	-563.90851	118.01375	446.54840	-663.50690	160.02667	219.24216	-608.60785	91.75491	177.28810	-567.11700	64.49764	170.43051	-493.67896	89.65053	160.71291	-528.16718	147.82939	157.99576	-610.26367	232.75568	199.92354	-584.03412	197.35254	158.19933	-708.58105	227.91560	173.36488	-634.64563	450.78625	737.10083	-579.59729	389.83194	743.47308	-566.78204	463.55353	630.50439	-482.76477	439.00519	539.90826	-423.04395	335.94196	515.80542	-471.09094	439.07367	496.74219	-421.11157	392.40393	467.41287	-537.36615	433.36966	466.86206	-662.24854	404.27542	212.06015	-584.05908	461.27026	167.90604	-547.69678	474.56729	161.75337	-486.89902	431.55707	168.17276	-521.19855	385.20367	174.48770	-625.81274	316.01370	195.61090	-588.02399	341.02628	159.77187	-726.51910	332.86987	167.47737	-443.96384	448.71457	148.13551	-450.22922	76.22038	143.31833	-806.12866	82.54615	142.75394	-798.68707	457.80609	145.63931	
557	11.120	-284.70126	263.00897	1396.39331	-381.88733	62.55188	1118.29858	-394.14752	456.05872	1124.10693	-406.64236	247.93558	1045.77954	-661.53107	150.54539	933.32062	-646.71472	331.52429	981.28809	-862.57166	254.82852	860.86182	-653.16418	99.06835	734.57990	-595.54590	165.06615	743.29596	-563.33374	84.82832	656.83502	-470.50012	108.77644	528.67859	-434.79224	235.64993	513.90381	-498.15613	109.14423	484.64807	-406.09021	162.06776	491.42209	-564.23926	117.60320	446.69257	-663.61749	159.92551	219.26256	-608.63361	91.69182	177.23218	-567.18127	64.36090	170.25717	-493.67953	89.64197	160.70601	-527.99719	147.94145	158.01460	-610.41302	232.58347	200.05383	-584.10352	197.49814	157.93442	-708.68066	227.82471	173.35979	-634.68304	450.30856	738.07611	-579.50189	389.46426	744.41638	-567.10419	463.01089	631.21448	-483.33575	438.52094	540.27747	-423.53427	335.64774	516.08917	-471.51141	438.71695	497.19397	-421.60587	392.10339	467.73224	-537.72369	433.03873	467.23312	-662.29053	404.29462	212.08591	-583.97675	461.15674	167.93134	-547.70941	474.56625	161.73352	-486.91861	431.55173	168.18243	-521.23596	385.20425	174.47362	-625.82025	316.02988	195.53203	-588.02106	341.03751	159.81537	-726.57324	332.91953	167.43051	-443.95450	448.71771	148.13708	-450.24551	76.21599	143.31421	-806.14313	82.51534	142.76622	-798.69763	457.74496	145.64008	
558	11.140	-285.74832	262.50464	1399.19641	-382.41907	62.00383	1120.86816	-394.59543	455.59717	1126.53870	-407.39426	247.94481	1048.91565	-660.56531	150.32256	934.99335	-645.55554	331.76849	982.41083	-862.41901	254.33952	862.45068	-653.02271	98.64584	735.74072	-595.31989	164.49606	744.23541	-563.98663	84.77963	657.87817	-471.01141	108.33748	528.97675	-436.18774	235.08047	514.51489	-498.71301	108.75122	484.81775	-406.81900	161.49704	491.66724	-564.64893	117.17741	446.80698	-663.74683	159.80109	219.25542	-608.63947	91.62823	177.19664	-567.24451	64.21662	170.10284	-493.67783	89.64203	160.69769	-527.87488	148.01813	158.02705	-610.55707	232.40900	200.17690	-584.17847	197.66133	157.61943	-708.76080	227.75180	173.34924	-634.69153	449.80432	739.24872	-579.39081	389.04596	745.48602	-567.40710	462.39441	632.07794	-484.01938	437.89499	540.63397	-424.11005	335.26501	516.43884	-471.99417	438.29288	497.69644	-422.15387	391.72025	468.10992	-538.17212	432.65988	467.63812	-662.33392	404.31079	212.13412	-583.88617	461.05145	167.97845	-547.71198	474.53186	161.71466	-486.94104	431.54065	168.19415	-521.28265	385.19641	174.44225	-625.85333	316.04785	195.45482	-588.02075	341.05237	159.85999	-726.67944	332.94733	167.37712	-443.94354	448.71814	148.14276	-450.25845	76.21160	143.30849	-806.14148	82.49632	142.77481	-798.69458	457.69266	145.61598	
559	11.160	-286.86386	262.07272	1402.40698	-383.00922	61.42657	1123.89673	-395.07489	455.10556	1129.31506	-408.16061	247.93930	1052.19019	-659.57104	150.09024	936.69904	-644.37311	332.01877	983.55206	-862.20502	253.88161	864.30933	-652.81641	98.23746	737.11243	-595.04071	163.95856	745.33289	-564.66052	84.72131	658.95807	-471.61450	107.89309	529.33710	-437.61246	234.48068	515.12585	-499.32413	108.35659	485.06805	-407.55161	160.91365	491.94833	-565.15570	116.75429	446.88611	-663.88727	159.65100	219.20630	-608.63013	91.56194	177.16536	-567.32300	64.06862	169.95752	-493.67630	89.65114	160.69095	-527.81415	148.04933	158.02806	-610.68201	232.24878	200.27699	-584.25299	197.80202	157.32652	-708.81635	227.69682	173.32858	-634.64966	449.27435	740.66333	-579.24927	388.59274	746.70532	-567.69659	461.74603	633.12238	-484.80704	437.16925	541.03180	-424.77832	334.80219	516.85883	-472.55594	437.82269	498.26987	-422.75964	391.25476	468.56506	-538.73291	432.24231	468.06549	-662.38971	404.32169	212.18961	-583.79572	460.97037	168.05185	-547.70129	474.47418	161.70195	-486.96420	431.52472	168.20857	-521.34045	385.17282	174.39876	-625.92120	316.06754	195.38231	-588.02094	341.06705	159.90938	-726.84308	332.96671	167.31264	-443.93307	448.71603	148.14958	-450.26395	76.20734	143.30090	-806.12195	82.49490	142.77782	-798.66931	457.66162	145.58939	
560	11.180	-288.04230	261.70129	1406.04297	-383.65463	60.82553	1127.40015	-395.58337	454.55533	1132.45215	-408.94092	247.91861	1055.60315	-658.54834	149.84840	938.43677	-643.16779	332.27490	984.71118	-861.91467	253.45526	866.46045	-652.55115	97.81829	738.71722	-594.70374	163.43674	746.59949	-565.35510	84.65324	660.07458	-472.32474	107.44297	529.77899	-439.06537	233.85056	515.73590	-500.00189	107.96758	485.39581	-408.28546	160.34914	492.28088	-565.76843	116.35254	446.94876	-664.03052	159.48752	219.11139	-608.62317	91.48709	177.11124	-567.43207	63.91095	169.80017	-493.68143	89.66487	160.68840	-527.80817	148.04358	158.01848	-610.78430	232.10727	200.35278	-584.32190	197.89095	157.11606	-708.85175	227.65079	173.29880	-634.53723	448.72644	742.34302	-579.05579	388.12973	748.10388	-568.00275	461.10562	634.35699	-485.67331	436.40665	541.54559	-425.53894	334.27805	517.35449	-473.21039	437.33020	498.93222	-423.43408	390.71719	469.10687	-539.40894	431.79666	468.51517	-662.47186	404.32974	212.24068	-583.71735	460.92273	168.14561	-547.67456	474.41296	161.70430	-486.98575	431.50500	168.22673	-521.40869	385.13092	174.35085	-626.03888	316.07837	195.31775	-588.02142	341.07538	159.96712	-727.05951	332.99521	167.23732	-443.92572	448.71210	148.15497	-450.26096	76.20348	143.29184	-806.08752	82.50879	142.77844	-798.63232	457.66190	145.57385	
561	11.200	-289.28485	261.35568	1410.12817	-384.35028	60.20566	1131.37952	-396.11578	453.94357	1135.98071	-409.73462	247.88222	1059.15491	-657.49731	149.59698	940.20563	-641.93994	332.53674	985.88745	-861.53906	253.05865	868.92688	-652.23761	97.37263	740.56915	-594.29553	162.90782	748.04749	-566.07007	84.57530	661.22748	-473.14838	106.98282	530.30981	-440.54547	233.19003	516.34406	-500.76520	107.58587	485.79593	-409.04163	159.81874	492.68884	-566.48126	115.98312	447.04022	-664.16986	159.33221	218.97894	-608.64282	91.39665	177.00488	-567.57587	63.73113	169.60887	-493.70068	89.67407	160.69093	-527.83704	148.01865	158.00491	-610.87695	231.97531	200.41882	-584.38361	197.92323	157.01224	-708.87811	227.59995	173.26901	-634.34351	448.17120	744.28467	-578.79059	387.67325	749.70050	-568.35919	460.49786	635.77716	-486.59216	435.66168	542.23596	-426.38519	333.71246	517.93292	-473.97049	436.83121	499.68756	-424.19138	390.12805	469.73615	-540.19177	431.32910	468.99118	-662.59436	404.34003	212.28671	-583.66559	460.90891	168.24455	-547.63055	474.36987	161.73332	-487.00504	431.48413	168.24899	-521.48218	385.07532	174.30634	-626.22394	316.05823	195.27209	-588.02911	341.07355	160.03400	-727.31189	333.04440	167.15739	-443.92343	448.70737	148.15744	-450.25171	76.20090	143.28284	-806.04370	82.52867	142.78316	-798.61127	457.69681	145.56700	
